<?xml version="1.0" encoding="utf-8"?>
<!-- Generator: Adobe Illustrator 26.0.3, SVG Export Plug-In . SVG Version: 6.00 Build 0)  -->
<svg version="1.1" id="Fundo" xmlns="http://www.w3.org/2000/svg" xmlns:xlink="http://www.w3.org/1999/xlink" x="0px" y="0px"
	 viewBox="0 0 1836 764.8" style="enable-background:new 0 0 1836 764.8;" xml:space="preserve">
<style type="text/css">
	.st0{fill-rule:evenodd;clip-rule:evenodd;fill:url(#SVGID_1_);stroke:#D5DFE5;}
	.st1{opacity:0.65;fill:url(#SVGID_00000059283902554989651690000017207936835915689132_);enable-background:new    ;}
	
		.st2{opacity:0.65;fill-rule:evenodd;clip-rule:evenodd;fill:url(#SVGID_00000180337198596463991910000004799701363995149735_);enable-background:new    ;}
	
		.st3{opacity:0.65;fill-rule:evenodd;clip-rule:evenodd;fill:url(#SVGID_00000163769905892946173920000000770863406307665539_);enable-background:new    ;}
	
		.st4{opacity:0.65;fill-rule:evenodd;clip-rule:evenodd;fill:url(#SVGID_00000158727177316936671940000006283206907659134864_);enable-background:new    ;}
	.st5{fill-rule:evenodd;clip-rule:evenodd;fill:#FFFFFF;}
	.st6{fill:none;stroke:#FFFFFF;stroke-width:2;}
</style>
<linearGradient id="SVGID_1_" gradientUnits="userSpaceOnUse" x1="567.3938" y1="243.8016" x2="1268.0198" y2="1021.9266" gradientTransform="matrix(1 0 0 -1 0 1016)">
	<stop  offset="0" style="stop-color:#8B10AE"/>
	<stop  offset="1" style="stop-color:#6701A6"/>
</linearGradient>
<rect x="-2" y="-0.9" class="st0" width="1839.5" height="768"/>
<linearGradient id="SVGID_00000021797913079097887440000012319801855055756434_" gradientUnits="userSpaceOnUse" x1="-161.8542" y1="8.8542" x2="732.1458" y2="902.8542" gradientTransform="matrix(1 0 0 -1 0 1016)">
	<stop  offset="0" style="stop-color:#8B10AE"/>
	<stop  offset="1" style="stop-color:#6701A6"/>
</linearGradient>
<path style="opacity:0.65;fill:url(#SVGID_00000021797913079097887440000012319801855055756434_);enable-background:new    ;" d="
	M693.3,767.1c29.9-60,46.7-127.6,46.7-199.1c0-246.9-200.1-447-447-447C180,121,76.7,163-2,232.2v534.9H693.3z"/>
<linearGradient id="SVGID_00000137098935521051194990000016771389480683851449_" gradientUnits="userSpaceOnUse" x1="-97.9261" y1="68.9261" x2="547.6989" y2="714.5511" gradientTransform="matrix(1 0 0 -1 0 1016)">
	<stop  offset="0" style="stop-color:#6701A6"/>
	<stop  offset="1" style="stop-color:#8B10AE"/>
</linearGradient>
<path style="opacity:0.65;fill-rule:evenodd;clip-rule:evenodd;fill:url(#SVGID_00000137098935521051194990000016771389480683851449_);enable-background:new    ;" d="
	M524.7,767.1c19.2-41.3,29.9-87.4,29.9-135.9c0-178.3-144.5-322.8-322.8-322.8c-92,0-175,38.5-233.8,100.3v358.4H524.7z"/>
<linearGradient id="SVGID_00000006676542685533015060000000621519645227818400_" gradientUnits="userSpaceOnUse" x1="1138.9089" y1="487.3571" x2="2033.0649" y2="1381.5131" gradientTransform="matrix(1 0 0 -1 0 1016)">
	<stop  offset="0" style="stop-color:#6701A6"/>
	<stop  offset="1" style="stop-color:#8B10AE"/>
</linearGradient>
<path style="opacity:0.65;fill-rule:evenodd;clip-rule:evenodd;fill:url(#SVGID_00000006676542685533015060000000621519645227818400_);enable-background:new    ;" d="
	M1837.5-0.9h-730.2c-18.9,174.5,66.7,351.3,230.3,440.6c165.5,90.4,363.1,65.1,499.9-48.4V-0.9z"/>
<linearGradient id="SVGID_00000164482677114092957700000005314774534942305457_" gradientUnits="userSpaceOnUse" x1="1315.5054" y1="636.5436" x2="1954.6313" y2="1275.6696" gradientTransform="matrix(1 0 0 -1 0 1016)">
	<stop  offset="0" style="stop-color:#6701A6"/>
	<stop  offset="1" style="stop-color:#8B10AE"/>
</linearGradient>
<path style="opacity:0.65;fill-rule:evenodd;clip-rule:evenodd;fill:url(#SVGID_00000164482677114092957700000005314774534942305457_);enable-background:new    ;" d="
	M1837.5-0.9h-547.7c-12.7,124.5,49.6,250.9,167.7,315.3c128.1,69.9,282.1,45.1,380-50.9V-0.9z"/>
<path class="st5" d="M15.4,767.1c-0.4-3.6-0.6-7.3-0.6-11c0-57.3,47-103.8,104.9-103.8c57.9,0,104.9,46.5,104.9,103.8
	c0,3.7-0.2,7.4-0.6,11h26.3c0.3-3.6,0.5-7.3,0.5-11c0-71.7-58.7-129.8-131.1-129.8C64.6,626.4,17.4,660-2,707.8v59.3H15.4z"/>
<path class="st6" d="M174,368.1c-8.6-8.4-22.3-8.4-30.9,0L-2,511.4v61l176-173.7c0.1-0.1,0.2-0.2,0.3-0.3
	C182.6,389.9,182.4,376.4,174,368.1z"/>
<path class="st6" d="M155.6,481.9c-7.7-7.6-20-7.6-27.7,0L-2,611.3v55.1l157.6-157c0.1-0.1,0.2-0.2,0.3-0.3
	C163.3,501.6,163.2,489.4,155.6,481.9z"/>
<path class="st5" d="M1778.8-0.9c-20.1,31.3-55.3,52.1-95.3,52.1h0c-40,0-75.2-20.8-95.3-52.1h-32.3c22.8,47.6,71.4,80.4,127.7,80.4
	s104.9-32.8,127.7-80.4H1778.8z"/>
<path class="st6" d="M1837.5,12.9l-180.2,179.7c0,0,0,0-0.1,0.1c-7,7-6.9,18.3,0.1,25.3c7,7,18.4,7,25.4,0l154.7-154.3V12.9z"/>
<path class="st6" d="M1837.5,111.8l-196.6,196.1c0,0,0,0,0,0c-9.2,9.2-9.1,24,0,33.2c9.2,9.2,24.1,9.2,33.3,0l163.3-162.8V111.8z"/>
</svg>
