<?xml version="1.0" encoding="utf-8"?>
<!-- Generator: Adobe Illustrator 26.0.3, SVG Export Plug-In . SVG Version: 6.00 Build 0)  -->
<svg version="1.1" id="Layer_1" xmlns="http://www.w3.org/2000/svg" xmlns:xlink="http://www.w3.org/1999/xlink" x="0px" y="0px"
	 viewBox="0 0 1836 939.1" style="enable-background:new 0 0 1836 939.1;" xml:space="preserve">
<style type="text/css">
	.st0{fill:url(#SVGID_1_);}
	.st1{opacity:0.65;fill:url(#SVGID_00000149381410826903224000000000832376976397384599_);enable-background:new    ;}
	
		.st2{opacity:0.65;fill-rule:evenodd;clip-rule:evenodd;fill:url(#SVGID_00000151536284596807274240000000777381803868247466_);enable-background:new    ;}
	.st3{opacity:0.65;fill:url(#SVGID_00000068669200296616921160000004254136237591986084_);enable-background:new    ;}
	
		.st4{opacity:0.65;fill-rule:evenodd;clip-rule:evenodd;fill:url(#SVGID_00000169551546400398216730000017250544397257312948_);enable-background:new    ;}
	.st5{fill:none;stroke:#FFFFFF;stroke-width:2;}
</style>
<linearGradient id="SVGID_1_" gradientUnits="userSpaceOnUse" x1="448.3746" y1="-125.2544" x2="1391.3937" y2="817.7646" gradientTransform="matrix(1 0 0 -1 0 814.7742)">
	<stop  offset="0" style="stop-color:#8B10AE"/>
	<stop  offset="1" style="stop-color:#6701A6"/>
</linearGradient>
<rect x="0.3" class="st0" width="1837.2" height="939"/>
<linearGradient id="SVGID_00000108303531446879988180000014649957833527349641_" gradientUnits="userSpaceOnUse" x1="-152.1102" y1="-299.2527" x2="741.8898" y2="594.7473" gradientTransform="matrix(1 0 0 -1 0 814.7742)">
	<stop  offset="0" style="stop-color:#8B10AE"/>
	<stop  offset="1" style="stop-color:#6701A6"/>
</linearGradient>
<path style="opacity:0.65;fill:url(#SVGID_00000108303531446879988180000014649957833527349641_);enable-background:new    ;" d="
	M651.6,939c57.3-75.2,91.4-169,91.4-270.9c0-246.9-200.1-447-447-447c-113.4,0-216.9,42.2-295.7,111.8V939H651.6z"/>
<linearGradient id="SVGID_00000062874818222587853930000008897202649630472582_" gradientUnits="userSpaceOnUse" x1="-71.9942" y1="-1556.6167" x2="573.6259" y2="-910.9968" gradientTransform="matrix(1 0 0 -1 0 -522.4758)">
	<stop  offset="0" style="stop-color:#6701A6"/>
	<stop  offset="1" style="stop-color:#8B10AE"/>
</linearGradient>
<path style="opacity:0.65;fill-rule:evenodd;clip-rule:evenodd;fill:url(#SVGID_00000062874818222587853930000008897202649630472582_);enable-background:new    ;" d="
	M479.7,939c58.1-58.4,94-138.8,94-227.7c0-178.3-144.5-322.8-322.8-322.8C149.7,388.5,59.5,435,0.3,507.7v407.2
	c6.8,8.4,14.1,16.4,21.7,24.1H479.7z"/>
<linearGradient id="SVGID_00000124134732919080645190000014584163616642013608_" gradientUnits="userSpaceOnUse" x1="1123.0164" y1="204.8808" x2="2017.1763" y2="1099.0408" gradientTransform="matrix(1 0 0 -1 0 814.7742)">
	<stop  offset="0" style="stop-color:#6701A6"/>
	<stop  offset="1" style="stop-color:#8B10AE"/>
</linearGradient>
<path style="opacity:0.65;fill:url(#SVGID_00000124134732919080645190000014584163616642013608_);enable-background:new    ;" d="
	M1837.5,3h-706c-15.5,45.3-23.9,93.9-23.9,144.5c0,246.9,200.2,447.1,447.1,447.1c107.3,0,205.7-37.8,282.7-100.7V3z"/>
<linearGradient id="SVGID_00000129178665088859193830000006929415292273181313_" gradientUnits="userSpaceOnUse" x1="1300.8492" y1="-984.4171" x2="1939.9792" y2="-345.2872" gradientTransform="matrix(1 0 0 -1 0 -522.4758)">
	<stop  offset="0" style="stop-color:#6701A6"/>
	<stop  offset="1" style="stop-color:#8B10AE"/>
</linearGradient>
<path style="opacity:0.65;fill-rule:evenodd;clip-rule:evenodd;fill:url(#SVGID_00000129178665088859193830000006929415292273181313_);enable-background:new    ;" d="
	M1837.5,3h-519c-67.2,150.3-7,330.3,142,411.6c126.8,69.2,279,45.6,377-48V3z"/>
<path class="st5" d="M0.3,484.5c59.1-7.8,142.3-51.9,226.7-206C306.1,134.2,389.5,47.5,456.7,0"/>
<path class="st5" d="M1837.5,434.2c-66.1,95.7-239.2,185.9-518.5,199.9c-318.3,16-352,225.5-353.2,304.9"/>
</svg>
