<?xml version="1.0" encoding="utf-8"?>
<!-- Generator: Adobe Illustrator 16.0.0, SVG Export Plug-In . SVG Version: 6.00 Build 0)  -->
<!DOCTYPE svg PUBLIC "-//W3C//DTD SVG 1.1//EN" "http://www.w3.org/Graphics/SVG/1.1/DTD/svg11.dtd">
<svg version="1.1" id="expand" xmlns="http://www.w3.org/2000/svg" xmlns:xlink="http://www.w3.org/1999/xlink" x="0px" y="0px"
	 width="512px" height="512px" viewBox="0 0 512 512" enable-background="new 0 0 512 512" xml:space="preserve">
<title>Artboard 356</title>
<path fill="#FFFFFE" d="M144,152h96c4.418,0,8-3.582,8-8s-3.582-8-8-8h-96c-4.418,0-8,3.582-8,8S139.582,152,144,152z"/>
<path fill="#FFFFFE" d="M240,200h-96c-4.418,0-8,3.582-8,8s3.582,8,8,8h96c4.418,0,8-3.582,8-8S244.418,200,240,200z"/>
<path fill="#FFFFFE" d="M240,264h-96c-4.418,0-8,3.582-8,8s3.582,8,8,8h96c4.418,0,8-3.582,8-8S244.418,264,240,264z"/>
<path fill="#FFFFFE" d="M256,360h-48c-4.418,0-8,3.582-8,8s3.582,8,8,8h48c4.418,0,8-3.582,8-8S260.418,360,256,360z"/>
<path fill="#FFFFFE" d="M352,296c57.438,0.031,104.025-46.507,104.056-103.944S409.549,88.031,352.111,88
	c-19.887-0.011-39.36,5.681-56.111,16.4V64.005c0-6.97-8.725-10.595-13.657-5.662L272,68.686l-10.343-10.343
	c-3.124-3.124-8.189-3.124-11.314,0c0,0,0,0,0,0L240,68.686l-10.343-10.343c-3.125-3.124-8.189-3.124-11.314,0c0,0,0,0,0,0
	L208,68.686l-10.343-10.343c-3.125-3.124-8.189-3.124-11.314,0c0,0,0,0,0,0L176,68.686l-10.343-10.343
	c-3.125-3.124-8.189-3.124-11.314,0c0,0,0,0,0,0L144,68.686l-10.343-10.343c-3.125-3.124-8.189-3.124-11.314,0c0,0,0,0,0,0
	L112,68.686l-10.343-10.343C96.734,53.4,88,57.042,88,64v288c0.025,22.081,17.919,39.975,40,40h24v24
	c0.025,22.081,17.919,39.976,40,40c2.12-0.008,4.152-0.85,5.657-2.343L208,443.314l10.343,10.343c3.125,3.124,8.189,3.124,11.314,0
	c0,0,0,0,0,0L240,443.314l10.343,10.343c3.144,3.077,8.171,3.077,11.314,0L272,443.314l10.343,10.343
	c3.124,3.124,8.189,3.124,11.313,0c0,0,0,0,0.001,0L304,443.314l10.343,10.343c3.124,3.124,8.189,3.124,11.313,0
	c0.001,0,0.001,0,0.001,0L336,443.314l10.343,10.343c1.505,1.493,3.537,2.335,5.657,2.343h32c4.418,0,8-3.582,8-8s-3.582-8-8-8
	c-13.248-0.016-23.984-10.752-24-24v-64c-0.024-22.081-17.919-39.975-40-40h-24v-32.4C312.705,290.33,332.146,296.023,352,296z
	 M440,192c0,48.601-39.399,88-88,88s-88-39.399-88-88s39.399-88,88-88C400.578,104.055,439.945,143.422,440,192z M128,376
	c-13.255,0-24-10.745-24-24s10.745-24,24-24s24,10.745,24,24v24H128z M344,352v64c-0.007,5.524,1.139,10.989,3.361,16.047l-5.7-5.7
	c-3.124-3.124-8.189-3.124-11.313,0h-0.001L320,436.685l-10.343-10.342c-3.124-3.124-8.189-3.124-11.313,0c-0.001,0-0.001,0-0.001,0
	L288,436.685l-10.343-10.342c-3.124-3.124-8.189-3.124-11.313,0c0,0,0,0-0.001,0L256,436.686l-10.343-10.343
	c-3.125-3.124-8.189-3.124-11.314,0c0,0,0,0,0,0L224,436.686l-10.343-10.343c-3.125-3.124-8.189-3.124-11.314,0c0,0,0,0,0,0
	L188.887,439.8c-11.943-1.578-20.873-11.754-20.887-23.8v-64c0.009-8.659-2.806-17.086-8.019-24H320
	C333.248,328.016,343.984,338.752,344,352z M280,312H128c-8.66-0.009-17.086,2.808-24,8.021V83.314l2.343,2.343
	c3.125,3.124,8.189,3.124,11.314,0c0,0,0,0,0,0L128,75.314l10.343,10.343c3.125,3.124,8.189,3.124,11.314,0c0,0,0,0,0,0L160,75.314
	l10.343,10.343c3.125,3.124,8.189,3.124,11.314,0c0,0,0,0,0,0L192,75.314l10.343,10.343c3.125,3.124,8.189,3.124,11.314,0
	c0,0,0,0,0,0L224,75.314l10.343,10.343c3.125,3.124,8.189,3.124,11.314,0c0,0,0,0,0,0L256,75.314l10.343,10.343
	c3.124,3.124,8.189,3.124,11.313,0c0,0,0,0,0.001,0L280,83.315v33.711c-41.407,39.671-42.814,105.397-3.145,146.804
	c1.025,1.07,2.074,2.119,3.145,3.145V312z"/>
<path fill="#FFFFFE" d="M364.8,222.4h-25.6c-2.649-0.003-4.797-2.15-4.8-4.8c0-4.418-3.582-8-8-8c-4.419,0-8,3.582-8,8
	c0.013,11.482,9.317,20.787,20.8,20.8h4.8V256c0,4.418,3.582,8,8,8s8-3.582,8-8v-17.6h4.8c11.482-0.013,20.787-9.318,20.8-20.8
	v-12.8c-0.013-11.482-9.317-20.787-20.8-20.8h-25.6c-2.649-0.003-4.797-2.15-4.8-4.8v-12.8c0.003-2.649,2.15-4.796,4.8-4.8h25.6
	c2.649,0.003,4.797,2.15,4.8,4.8c0,4.418,3.582,8,8,8c4.419,0,8-3.582,8-8c-0.013-11.482-9.317-20.787-20.8-20.8H360V128
	c0-4.418-3.582-8-8-8s-8,3.582-8,8v17.6h-4.8c-11.482,0.013-20.787,9.318-20.8,20.8v12.8c0.013,11.482,9.317,20.787,20.8,20.8h25.6
	c2.649,0.003,4.797,2.15,4.8,4.8v12.8C369.597,220.25,367.449,222.396,364.8,222.4z"/>
<path fill="#FFFFFE" d="M280,368c0,4.418,3.582,8,8,8h16c4.418,0,8-3.582,8-8s-3.582-8-8-8h-16C283.582,360,280,363.582,280,368z"/>
</svg>
