<?xml version="1.0" encoding="utf-8"?>
<!-- Generator: Adobe Illustrator 16.0.0, SVG Export Plug-In . SVG Version: 6.00 Build 0)  -->
<!DOCTYPE svg PUBLIC "-//W3C//DTD SVG 1.1//EN" "http://www.w3.org/Graphics/SVG/1.1/DTD/svg11.dtd">
<svg version="1.1" id="Layer_1" xmlns="http://www.w3.org/2000/svg" xmlns:xlink="http://www.w3.org/1999/xlink" x="0px" y="0px"
	 width="612px" height="792px" viewBox="0 0 612 792" enable-background="new 0 0 612 792" xml:space="preserve">
<g id="Layer_2">
	<g id="Layer_1-2">
		<path fill="#FFFFFE" d="M387.336,357.373v10.502c5.475,0.595,10.883,1.691,16.157,3.274v-10.885
			C398.204,358.821,392.797,357.854,387.336,357.373z M492.228,581.611h-16.029V459.075c-3.227,11.761-8.714,22.78-16.156,32.44
			v90.096H330.83v-70.58l-0.51-0.34c-5.731-4.1-10.993-8.819-15.689-14.073v85.035H185.59V452.484h40.349v40.35
			c0,4.462,3.617,8.078,8.079,8.078l0,0h32.271c4.461,0,8.078-3.616,8.078-8.078v-40.35h18.41c-0.627-2.978-1.096-5.986-1.403-9.014
			c0-2.296-0.34-4.634-0.34-6.973H258.21V307.415h40.35v40.349c0.082,4.196,3.378,7.622,7.568,7.866h26.786
			c2.853-1.899,5.805-3.645,8.844-5.229c1.743-0.893,3.486-1.743,5.271-2.551c0.021-0.098,0.021-0.199,0-0.297v-40.137h40.307
			v32.611c5.428,0.089,10.836,0.672,16.157,1.743v-42.518c0-4.461-3.617-8.078-8.078-8.078l0,0H330.83V153.925
			c0-4.445-3.591-8.055-8.035-8.078H177.511c-4.445,0.023-8.036,3.633-8.036,8.078v137.162h-64.584
			c-4.461,0-8.078,3.617-8.078,8.079l0,0v137.162H32.271c-4.461,0-8.079,3.617-8.079,8.078l0,0v137.205H8.078
			c-4.445,0-8.055,3.591-8.078,8.035v48.428c0,4.462,3.617,8.079,8.078,8.079l0,0h48.428c4.445-0.023,8.036-3.634,8.036-8.079
			v-8.078h371.222v8.078c0,4.445,3.591,8.056,8.036,8.079h48.428c4.462,0,8.078-3.617,8.078-8.079l0,0v-48.428
			C500.282,585.202,496.673,581.611,492.228,581.611L492.228,581.611z M258.38,484.756h-16.284v-32.271h16.114L258.38,484.756z
			 M330.83,307.415v32.271h-16.199v-32.271H330.83z M242.096,162.004h16.114v32.271h-16.114V162.004z M185.59,162.004h40.349v40.349
			c0.022,4.379,3.53,7.944,7.909,8.036h32.271c4.445,0,8.055-3.591,8.079-8.036v-40.349h40.434v129.083H185.59V162.004z
			 M169.476,307.415h16.114v32.271h-16.114V307.415z M112.97,307.415h40.349v40.349c0,4.461,3.617,8.078,8.079,8.078l0,0h32.271
			c4.462,0,8.079-3.617,8.079-8.078l0,0v-40.349h40.349v128.914H112.97V307.415z M96.813,452.655h16.157v32.271H96.813V452.655z
			 M40.349,452.655h40.435v40.349c0,4.462,3.617,8.079,8.078,8.079l0,0h32.271c4.462,0,8.079-3.617,8.079-8.079l0,0v-40.52h40.349
			v129.127H40.349V452.655z M484.149,630.166h-32.271v-8.12c0-4.462-3.616-8.079-8.078-8.079l0,0H56.506
			c-4.461,0-8.078,3.617-8.078,8.079l0,0v8.035H16.157v-32.271h467.993V630.166z"/>
		<path fill="#FFFFFE" d="M266.289,549.298h32.271v16.156h-32.271V549.298z"/>
		<path fill="#FFFFFE" d="M411.529,549.298H443.8v16.156h-32.271V549.298z"/>
		<path fill="#FFFFFE" d="M121.048,549.298h32.271v16.156h-32.271V549.298z"/>
		<path fill="#FFFFFE" d="M193.668,404.057h32.271v16.157h-32.271V404.057z"/>
		<path fill="#FFFFFE" d="M266.289,258.816h32.271v16.114h-32.271V258.816z"/>
		<path fill="#FFFFFE" d="M601.881,521.448l-82.314-33.504c-3.973-1.658-8.443-1.658-12.415,0c-2.144,0.882-4.062,2.232-5.612,3.954
			l-21.259-8.503l-0.341,0.638l0.681-0.341l-0.681,0.341l-4.251,8.503l21.769,8.547c-0.918,7.279,3.186,14.265,9.992,17.007
			l82.314,33.546c8.313,3.382,17.792-0.616,21.174-8.929c3.381-8.313-0.616-17.792-8.93-21.174l0,0L601.881,521.448z"/>
		<path fill="#FFFFFE" d="M314.631,496.618c-1.474-1.672-2.891-3.416-4.252-5.229c-5.739,2.253-11.182,4.634-16.156,7.101
			c5.116,7.21,11.083,13.776,17.772,19.558l2.721-1.317c2.807-1.276,5.825-2.509,9.057-3.742c2.253-0.851,4.252-1.658,6.548-2.296
			C324.589,506.592,319.327,501.872,314.631,496.618z M346.902,329.396v18.198c0.021,0.098,0.021,0.199,0,0.297
			c12.693-5.664,26.496-8.41,40.392-8.036v-17.22c-13.741-0.299-27.415,1.995-40.307,6.76H346.902z M306.553,355.672h-0.425
			c-1.19,1.19-2.339,2.424-3.487,3.699c-4.565,4.97-8.665,10.35-12.245,16.072c-7.336,11.987-12.369,25.239-14.839,39.074
			c-1.324,7.148-1.908,14.415-1.743,21.684h17.007c-0.08-3.804,0.077-7.609,0.468-11.395c2.78-28.087,17.929-53.476,41.327-69.261
			L306.553,355.672z M346.902,329.396v18.198c0.021,0.098,0.021,0.199,0,0.297c12.693-5.664,26.496-8.41,40.392-8.036v-17.22
			c-13.741-0.299-27.415,1.995-40.307,6.76H346.902z M306.128,355.629c-1.19,1.19-2.339,2.423-3.487,3.699
			c-4.567,4.983-8.667,10.378-12.245,16.114c-7.336,11.987-12.369,25.239-14.839,39.074c-1.324,7.148-1.908,14.415-1.743,21.684
			h17.007c-0.08-3.804,0.077-7.609,0.468-11.395c2.78-28.087,17.929-53.476,41.327-69.261h-26.488V355.629z M301.025,476.465
			c-2.112-4.181-3.903-8.516-5.357-12.968c-1.186-3.608-2.152-7.286-2.891-11.013h-17.475c0.733,4.305,1.712,8.563,2.934,12.756
			c1.844,6.27,4.249,12.359,7.186,18.197c2.521,5.221,5.464,10.226,8.801,14.967c5.116,7.21,11.083,13.776,17.772,19.558
			l2.721-1.318v-20.025c-1.474-1.672-2.891-3.416-4.251-5.229C306.847,486.729,303.686,481.73,301.025,476.465z M488.104,390.749
			c-9.355-22.355-25.785-41.025-46.77-53.147c-7.091-4.088-14.604-7.396-22.407-9.864c-10.15-3.177-20.701-4.895-31.335-5.102
			c-13.756-0.304-27.444,1.99-40.35,6.76l-1.318,0.468c-5.109,1.926-10.069,4.229-14.838,6.888h-0.341
			c-1.488,0.808-2.891,1.658-4.252,2.594c-7.424,4.582-14.263,10.05-20.365,16.284c-1.19,1.19-2.339,2.423-3.487,3.699
			c-4.567,4.983-8.667,10.378-12.245,16.114c-7.336,11.987-12.369,25.239-14.839,39.074c-1.324,7.148-1.908,14.415-1.743,21.684
			c0.044,4.426,0.385,8.844,1.021,13.224c0,0.978,0.298,1.955,0.468,2.934c0.733,4.305,1.712,8.563,2.934,12.755
			c1.844,6.27,4.249,12.36,7.186,18.198c2.521,5.22,5.464,10.226,8.801,14.966c5.116,7.21,11.083,13.777,17.772,19.559l2.721,2.296
			c4.472,3.67,9.235,6.969,14.244,9.863l1.87,1.063c41.664,23.49,93.688,17.666,129.127-14.456c0.723-0.596,1.445-1.233,2.126-1.913
			c5.204-4.852,9.931-10.19,14.115-15.944c1.148-1.573,2.211-3.188,3.231-4.805c0.425-0.638,0.893-1.36,1.275-2.083
			s0.255-0.426,0.426-0.638c0.059-0.156,0.146-0.3,0.255-0.426l3.019-5.654l1.36-2.594l0.341-0.681
			c1.949-4.138,3.625-8.398,5.017-12.755c8.533-25.628,7.43-53.488-3.104-78.36H488.104z M460.042,491.516
			c-1.446,1.914-3.019,3.784-4.635,5.612c-7.551,8.364-16.518,15.33-26.488,20.579c-22.773,11.929-49.452,13.958-73.769,5.612l0,0
			c-8.61-2.938-16.757-7.089-24.192-12.33l-0.511-0.34c-5.773-4.079-11.078-8.785-15.816-14.031
			c-1.474-1.672-2.891-3.416-4.252-5.229c-6.436-8.405-11.408-17.834-14.711-27.892c-1.186-3.608-2.152-7.286-2.891-11.013
			c-0.627-2.978-1.096-5.986-1.403-9.014c0-2.296-0.34-4.634-0.34-6.973c-0.08-3.804,0.077-7.609,0.468-11.395
			c2.78-28.088,17.929-53.477,41.328-69.262c2.853-1.898,5.805-3.644,8.843-5.229c1.744-0.893,3.487-1.743,5.272-2.551
			c12.694-5.664,26.497-8.41,40.392-8.036c5.428,0.089,10.836,0.672,16.157,1.743c33.433,6.591,60.718,30.691,71.388,63.054
			c5.767,17.623,6.195,36.557,1.232,54.423c-3.227,11.761-8.714,22.78-16.156,32.441L460.042,491.516z M306.638,355.672h-0.51
			c-1.19,1.19-2.339,2.424-3.487,3.699c-4.565,4.97-8.665,10.35-12.245,16.072c-7.336,11.987-12.369,25.239-14.839,39.074
			c-1.324,7.148-1.908,14.415-1.743,21.684h17.007c-0.08-3.804,0.077-7.609,0.468-11.395c2.78-28.087,17.929-53.476,41.327-69.261
			L306.638,355.672z M346.987,329.396v18.198c0.021,0.098,0.021,0.199,0,0.297c12.694-5.664,26.496-8.41,40.392-8.036v-17.22
			C373.609,322.327,359.905,324.62,346.987,329.396z"/>
		<path fill="#FFFFFE" d="M459.191,416.387c-2.619,1.057-5.607-0.119-6.803-2.678c-1.381-3.297-3.016-6.48-4.89-9.524l0,0
			c-9.983-16.153-25.702-27.938-44.006-32.994c-5.274-1.583-10.683-2.679-16.157-3.274c-10.772-1.464-21.739-0.312-31.973,3.359
			c-2.677,1.174-5.799-0.044-6.973-2.721c-1.175-2.677,0.044-5.799,2.721-6.973c11.495-4.323,23.87-5.783,36.055-4.252
			c5.461,0.481,10.868,1.448,16.157,2.891c1.658,0.383,3.231,0.851,4.847,1.361c10.443,3.224,20.212,8.325,28.827,15.051l0,0
			c11.042,8.615,19.693,19.916,25.128,32.824c1.105,2.719-0.202,5.819-2.921,6.926C459.199,416.384,459.195,416.386,459.191,416.387
			z"/>
	</g>
</g>
</svg>
