<?xml version="1.0" encoding="utf-8"?>
<!-- Generator: Adobe Illustrator 16.0.0, SVG Export Plug-In . SVG Version: 6.00 Build 0)  -->
<!DOCTYPE svg PUBLIC "-//W3C//DTD SVG 1.1//EN" "http://www.w3.org/Graphics/SVG/1.1/DTD/svg11.dtd">
<svg version="1.1" id="Layer_1" xmlns="http://www.w3.org/2000/svg" xmlns:xlink="http://www.w3.org/1999/xlink" x="0px" y="0px"
	 width="612px" height="792px" viewBox="0 0 612 792" enable-background="new 0 0 612 792" xml:space="preserve">
<g id="Layer_2">
	<g id="Layer_1-2">
		<path fill="#FFFFFE" d="M327.339,210.662h35.965c6.499,0.087,11.963-4.854,12.528-11.329c0.496-6.603-4.453-12.357-11.056-12.854
			c-0.311-0.023-0.622-0.035-0.933-0.034h-35.965c-6.499-0.087-11.964,4.854-12.528,11.329c-0.496,6.602,4.453,12.357,11.056,12.854
			C326.717,210.651,327.027,210.663,327.339,210.662z"/>
		<path fill="#FFFFFE" d="M315.411,246.147c-0.464,6.604,4.515,12.334,11.119,12.798c0.289,0.021,0.579,0.03,0.869,0.029h96.266
			c6.509,0.117,11.991-4.84,12.527-11.329c0.464-6.605-4.515-12.334-11.12-12.798c-0.289-0.02-0.578-0.03-0.868-0.029h-96.266
			C321.429,234.701,315.947,239.658,315.411,246.147z"/>
		<path fill="#FFFFFE" d="M436.192,296.018c0.464-6.605-4.515-12.334-11.12-12.798c-0.289-0.02-0.578-0.03-0.868-0.029h-96.266
			c-6.51-0.117-11.991,4.841-12.527,11.329c-0.464,6.604,4.515,12.334,11.119,12.798c0.289,0.021,0.579,0.03,0.869,0.029h96.266
			C430.174,307.464,435.656,302.506,436.192,296.018z"/>
		<path fill="#FFFFFE" d="M604.747,688.214l-91.71-85.417c-4.47-4.086-10.373-6.24-16.424-5.994
			c-3.253,0.12-6.441,0.938-9.351,2.398l-2.338-2.218v-33.388c47.13-57.671,47.13-140.555,0-198.226V159.232
			c0.016-9.699-3.848-19-10.729-25.834l-58.383-58.503c-6.834-6.882-16.136-10.745-25.835-10.729H24.336
			C11.096,63.966,0.201,74.537,0.001,87.777C-0.002,87.999-0.003,88.22,0,88.441V671.31c-0.001,13.242,10.733,23.978,23.975,23.979
			c0.101,0,0.201,0,0.302-0.002h433.675c14.896,0,26.974-12.076,26.974-26.973v-29.132l88.593,82.539
			c9.253,8.624,23.744,8.114,32.368-1.139S614,696.837,604.747,688.214z M495.894,470.627c-0.699,16.191-4.419,32.109-10.969,46.934
			c-6.069,14.055-14.526,26.953-24.996,38.123c-10.363,11.07-22.522,20.312-35.964,27.333c-14.128,7.252-29.431,11.94-45.196,13.847
			c-26.02,3.077-52.367-1.638-75.706-13.547c-8.68-4.416-16.842-9.783-24.336-16.005l0,0c-10.243-8.492-19.153-18.474-26.434-29.61
			c-7.284-10.906-12.881-22.85-16.604-35.426c-2.421-7.931-4.048-16.083-4.855-24.336c-0.713-6.567-0.914-13.182-0.599-19.78
			c0.767-18.432,5.489-36.482,13.846-52.929c10.781-21.553,27.157-39.813,47.414-52.868
			c61.874-39.536,144.082-21.427,183.617,40.447c14.759,23.099,22.018,50.194,20.782,77.577V470.627z M121.561,586.073h35.964
			v25.596H83.918v-42.618c0-2.123,0.603-4.201,1.738-5.994c7.792-12.708,38.422-51.43,125.157-58.982
			c3.142,12.067,7.709,23.718,13.606,34.706c-35.965,3.116-52.988,15.404-60.361,23.377H122.1
			c-6.498-0.088-11.963,4.854-12.527,11.329c-0.331,6.612,4.761,12.241,11.374,12.572
			C121.151,586.069,121.356,586.074,121.561,586.073z M412.396,106.724l31.17,31.409h-31.17V106.724z M291.494,89.76h96.745v48.252
			c-0.165,13.241,10.435,24.109,23.675,24.274c0.101,0.001,0.201,0.002,0.302,0.002h47.953l0.18,178.865
			c-27.667-21.913-61.931-33.827-97.225-33.807c-7.885-0.009-15.759,0.572-23.557,1.738c-16.733,2.485-32.938,7.731-47.953,15.525
			L291.494,89.76z M23.977,89.76h243.361v250.135c-15.679,12.118-28.955,27.06-39.142,44.057
			c-5.722-21.711-19.79-40.283-39.142-51.669c8.851-6.388,15.977-14.874,20.74-24.696c3.894-8.069,6.638-16.644,8.152-25.475
			c14.905-4.962,24.985-18.877,25.056-34.586v-60.72c-0.061-14.674-8.887-27.89-22.418-33.567c8.276-10.59,6.4-25.884-4.19-34.16
			c-4.281-3.346-9.559-5.163-14.992-5.161h-80.021c-40.274,0-72.942,32.614-73.008,72.889v60.72
			c-0.127,9.626,3.709,18.882,10.61,25.595c3.914,4.212,9.013,7.139,14.625,8.392c2.577,20.094,13.008,38.349,29.012,50.77
			c-25.952,15.253-41.909,43.086-41.959,73.188H23.977V89.76z M184.259,170.861c2.347,2.783,5.832,4.349,9.471,4.256h11.988
			c6.621,0,11.988,5.367,11.988,11.988v13.127c-8.192-1.672-16.71,0.153-23.497,5.035c-4.213-3.687-9.353-6.153-14.865-7.133
			c-6.707-1.922-13.292-4.244-19.721-6.953l-5.994-2.397c-5.34-1.963-11.204-1.963-16.544,0l-5.994,2.397
			c-6.352,2.68-12.857,4.981-19.481,6.894c-5.809,0.941-11.245,3.473-15.705,7.313c-6.771-4.866-15.264-6.69-23.437-5.035v-13.727
			c0-26.781,21.711-48.492,48.493-48.492c0.02,0,0.04,0,0.06,0h79.482l-15.645,15.944
			C180.356,158.678,180.096,165.95,184.259,170.861z M73.608,224.808c1.473-2.996,5.096-4.23,8.092-2.757
			c2.996,1.473,4.23,5.096,2.757,8.092c-0.428,2.194,0.295,4.456,1.918,5.994c10.31,9.531,22.418,2.397,22.418-7.612
			c-0.055-3.903,2.745-7.262,6.593-7.913c8.175-2.072,16.188-4.737,23.977-7.972l5.994-2.218l5.994,2.218
			c7.777,3.265,15.793,5.93,23.977,7.972c3.777,0.728,6.483,4.066,6.414,7.913c0,10.01,11.988,17.143,22.418,7.612
			c1.604-1.55,2.324-3.801,1.918-5.994c-1.473-2.996-0.239-6.619,2.757-8.092c2.996-1.473,6.619-0.238,8.092,2.757l0,0
			c0.677,0.615,1.067,1.483,1.079,2.398v19.721c-0.079,5.193-3.414,9.777-8.332,11.449c-8.658,2.6-15.049,9.947-16.424,18.881
			c-0.906,6.448-2.806,12.717-5.634,18.582c-7.812,15.739-24.451,25.104-41.959,23.617c-24.555,1.923-46.019-16.424-47.942-40.979
			c-0.003-0.047-0.007-0.094-0.011-0.141c0-0.36,0-0.719,0-1.139c-1.526-8.871-7.892-16.139-16.484-18.821
			c-1.848-0.628-3.515-1.698-4.855-3.117c-2.235-2.19-3.471-5.203-3.417-8.332v-19.541c-0.122-0.856,0.117-1.725,0.66-2.397V224.808
			z M145.537,344.69c33.418,0.198,60.395,27.362,60.361,60.78H84.577c0-33.502,27.159-60.661,60.661-60.661L145.537,344.69z
			 M459.749,641.34v29.97h-28.592L23.977,671.37V429.807h185.818c-1.691,7.398-2.833,14.911-3.417,22.479
			c-0.811,9.173-0.811,18.399,0,27.572c-93.508,8.572-129.772,50.95-141.641,70.312c-3.261,5.707-4.918,12.189-4.795,18.762v42.618
			c-0.001,13.291,10.686,24.112,23.977,24.276h73.847c13.408,0,24.276-10.869,24.276-24.276l0,0V579.24
			c4.375-4.495,19.301-15.885,58.683-16.244c16.477,20.516,37.854,36.554,62.159,46.635v1.857
			c-0.165,13.241,10.435,24.109,23.675,24.274c0.101,0.002,0.201,0.002,0.302,0.002h72.649c13.29-0.164,23.978-10.984,23.976-24.276
			v-1.857c11.854-5.004,23.047-11.445,33.328-19.182l0,0l2.757,2.577l0,0L459.749,641.34z"/>
		<path fill="#FFFFFE" d="M460.229,414.881c-7.994-13.175-18.312-24.791-30.45-34.286c-23.017-17.982-52.508-29.551-75.166-28.712
			c-4.104,0.149-7.312,3.597-7.163,7.702c0.149,4.105,3.598,7.312,7.702,7.163c32.249-1.139,93.988,29.312,104.958,89.252l0,0
			c0.889,4.987,1.37,10.039,1.438,15.105c-0.189,4.134,3.008,7.638,7.142,7.827s7.639-3.008,7.828-7.142
			c0.019-0.409,0.004-0.818-0.045-1.226c-0.69-19.639-6.363-38.78-16.483-55.625L460.229,414.881z"/>
	</g>
</g>
</svg>
