<?xml version="1.0" encoding="utf-8"?>
<!-- Generator: Adobe Illustrator 16.0.0, SVG Export Plug-In . SVG Version: 6.00 Build 0)  -->
<!DOCTYPE svg PUBLIC "-//W3C//DTD SVG 1.1//EN" "http://www.w3.org/Graphics/SVG/1.1/DTD/svg11.dtd">
<svg version="1.1" id="Layer_1" xmlns="http://www.w3.org/2000/svg" xmlns:xlink="http://www.w3.org/1999/xlink" x="0px" y="0px"
	 width="512px" height="512px" viewBox="0 0 512 512" enable-background="new 0 0 512 512" xml:space="preserve">
<path fill="#FFFFFE" d="M447.706,512c-34.123-0.037-61.775-27.689-61.814-61.812V145.898H90.922v164.618c0,5.523-4.477,10-10,10
	s-10-4.477-10-10V135.898c0-5.523,4.477-10,10-10h418.601c5.522,0,9.999,4.477,9.999,10v314.291
	C509.483,484.312,481.829,511.964,447.706,512z M405.892,145.898v304.291c0.01,23.093,18.739,41.806,41.832,41.796
	c23.079-0.01,41.786-18.717,41.796-41.796V145.898H405.892z"/>
<path fill="#FFFFFE" d="M447.706,512H278.441c-5.522,0-10-4.478-10-10s4.478-10,10-10h169.265c5.522,0,10,4.478,10,10
	S453.229,512,447.706,512z"/>
<path fill="#FFFFFE" d="M331.354,189.984c-5.522,0-10-4.477-10-10v-77.038c0-45.81-37.136-82.946-82.945-82.946
	c-45.81,0-82.946,37.136-82.946,82.946v77.038c0,5.523-4.477,10-10,10s-10-4.477-10-10v-77.038
	C135.469,46.09,181.565,0.006,238.421,0.013c56.845,0.007,102.926,46.088,102.933,102.933v77.038
	C341.354,185.507,336.877,189.984,331.354,189.984z"/>
<path fill="#FFFFFE" d="M424.3,145.898c-5.522,0-10-4.477-10-10v-32.952C414.257,57.093,377.051,19.957,331.198,20
	c-7.005,0.006-13.981,0.899-20.763,2.658c-5.351,1.365-10.796-1.866-12.161-7.218c-1.357-5.319,1.828-10.738,7.136-12.141
	C360.486-10.985,416.715,22.082,431,77.158c2.185,8.422,3.293,17.087,3.3,25.788v32.952
	C434.3,141.421,429.823,145.898,424.3,145.898z"/>
<path fill="#FFFFFE" d="M238.4,145.898c-5.523,0-10-4.477-10-10v-32.952c-0.093-27.844,11.185-54.52,31.224-73.852
	c3.962-3.848,10.292-3.756,14.142,0.205c3.848,3.962,3.756,10.293-0.205,14.141l0,0c-16.148,15.577-25.236,37.07-25.161,59.506
	v32.952C248.4,141.421,243.923,145.898,238.4,145.898z"/>
<path fill="#FFFFFE" d="M447.706,459.706c-5.522,0-10-4.478-10-10V179.984c0-5.523,4.478-10,10-10s10,4.477,10,10v269.722
	C457.706,455.229,453.229,459.706,447.706,459.706z"/>
<path fill="#FFFFFE" d="M61.106,504.826H12.48c-5.523,0-10-4.478-10-10V336.09c0-5.522,4.477-10,10-10h48.626
	c5.523,0,10,4.478,10,10l0,0v158.736C71.106,500.349,66.629,504.826,61.106,504.826z M22.48,484.826h28.626V346.09H22.48V484.826z"
	/>
<path fill="#FFFFFE" d="M259.936,437.974h-38.419c-5.523,0-10-4.477-10-10c0-5.522,4.477-9.999,10-9.999h38.419
	c4.698,0.004,8.51-3.802,8.514-8.5c0.004-4.697-3.802-8.509-8.5-8.513c-0.004,0-0.009,0-0.014,0h-38.419c-5.523,0-10-4.478-10-10
	s4.477-10,10-10h38.419c15.744-0.008,28.513,12.749,28.521,28.492c0.007,15.743-12.749,28.513-28.492,28.52
	C259.955,437.974,259.945,437.974,259.936,437.974z"/>
<path fill="#FFFFFE" d="M246.618,475.1l-25.146-0.111c-5.523-0.013-9.99-4.499-9.978-10.022c0.012-5.522,4.499-9.99,10.022-9.978
	h0.044l25.102,0.111c4.698-0.012,8.496-3.83,8.484-8.527c-0.012-4.698-3.83-8.496-8.528-8.484l-25.146-0.114
	c-5.523-0.012-9.99-4.499-9.978-10.021c0.012-5.523,4.499-9.99,10.022-9.978h0.046l25.1,0.113
	c15.743,0.012,28.496,12.785,28.484,28.528C275.134,462.359,262.361,475.112,246.618,475.1L246.618,475.1z"/>
<path fill="#FFFFFE" d="M230.314,512h-69.488c-16.804-0.001-33.291-4.579-47.688-13.244c-11.283-6.792-24.203-10.38-37.372-10.38
	h-24.66V342.542h40.518c2.195-0.001,4.319-0.776,6-2.188c24.358-20.506,40.636-49.002,45.928-80.399l2.72-16.16
	c3.141-18.66,20.814-31.24,39.474-28.1c16.032,2.699,27.96,16.293,28.552,32.54c0.943,25.76-1.999,51.516-8.728,76.4l-5.22,19.32
	h49.63c15.741-0.323,28.762,12.175,29.084,27.915c0.323,15.74-12.175,28.762-27.915,29.085c-0.39,0.008-0.78,0.008-1.17,0h-28.464
	c-5.523,0-10-4.478-10-10s4.477-10,10-10h28.464c4.694,0.177,8.643-3.486,8.819-8.181c0.177-4.694-3.485-8.643-8.18-8.819
	c-0.213-0.009-0.426-0.009-0.639,0h-50.524c-10.668-0.002-19.314-8.651-19.313-19.319c0-1.701,0.225-3.394,0.668-5.035l5.452-20.186
	c6.204-22.945,8.917-46.694,8.05-70.448c-0.295-7.871-6.915-14.013-14.786-13.718c-6.752,0.253-12.4,5.21-13.528,11.872
	l-2.718,16.16c-6.083,36.075-24.788,68.815-52.776,92.378c-5.287,4.443-11.972,6.881-18.878,6.884H71.106v105.834h4.66
	c16.804,0.001,33.29,4.579,47.688,13.244c11.283,6.791,24.203,10.379,37.372,10.38h69.488c4.698-0.004,8.503-3.815,8.499-8.513
	c-0.004-4.692-3.807-8.495-8.499-8.499h-8.8c-5.523,0-10-4.478-10-10c0-5.523,4.477-10,10-10h8.8
	c15.744,0.008,28.5,12.776,28.493,28.52C258.799,499.24,246.046,511.992,230.314,512L230.314,512z"/>
<path fill="#FFFFFE" d="M36.8,478.814c-5.522,0-10-4.478-10-10v-19.059c0-5.522,4.478-10,10-10c5.523,0,10,4.478,10,10v19.059
	C46.8,474.337,42.323,478.814,36.8,478.814z"/>
</svg>
