<svg xmlns="http://www.w3.org/2000/svg" xmlns:xlink="http://www.w3.org/1999/xlink" width="92.375" height="23.97" viewBox="0 0 92.375 23.97">
  <defs>
    <style>
      .cls-1 {
        fill-rule: evenodd;
        fill: url(#linear-gradient);
      }
    </style>
    <linearGradient id="linear-gradient" x1="906.328" y1="2776.97" x2="930.297" y2="2753" gradientUnits="userSpaceOnUse">
      <stop offset="0" stop-color="#8b10ae"/>
      <stop offset="1" stop-color="#6701a6"/>
    </linearGradient>
  </defs>
  <path id="Shape_330_3" data-name="Shape 330 3" class="cls-1" d="M960.4,2773.3v-8.28a3.967,3.967,0,0,0-.332-1.61,4.234,4.234,0,0,0-.893-1.31,4.3,4.3,0,0,0-1.329-.9,4.116,4.116,0,0,0-1.641-.33,3.984,3.984,0,0,0-1.609.33,4.311,4.311,0,0,0-1.319.9,4.234,4.234,0,0,0-.893,1.31,3.968,3.968,0,0,0-.333,1.61,3.921,3.921,0,0,0,.333,1.6,4.19,4.19,0,0,0,2.212,2.21,3.984,3.984,0,0,0,1.609.33h4.154l-4.154,4.14a8.135,8.135,0,0,1-3.23-.67,8.433,8.433,0,0,1-2.627-1.77,8.321,8.321,0,0,1-1.765-2.62,8.347,8.347,0,0,1,0-6.43,8.25,8.25,0,0,1,4.392-4.43,8.375,8.375,0,0,1,6.47,0,8.429,8.429,0,0,1,2.638,1.78,8.6,8.6,0,0,1,1.775,2.65,7.928,7.928,0,0,1,.655,3.21v8.28H960.4Zm-14.476-12.47v12.47h-4.112v-12.47H935.85v12.47h-4.112v-8.01H929.2a7.9,7.9,0,0,1-.648,2.95,8.379,8.379,0,0,1-4.434,4.41,7.988,7.988,0,0,1-2.908.65v3.66h-0.553v-3.66a7.9,7.9,0,0,1-2.988-.65,8.409,8.409,0,0,1-4.423-4.41,7.9,7.9,0,0,1-.648-2.95h-3.71v-0.55h3.71a7.907,7.907,0,0,1,.648-2.93,8.355,8.355,0,0,1,4.423-4.43,8.1,8.1,0,0,1,2.988-.65V2753h0.553v3.74a7.978,7.978,0,0,1,2.908.64,8.556,8.556,0,0,1,2.648,1.78,8.821,8.821,0,0,1,.986,1.19v-3.62h24.4l-4.112,4.1h-2.119Zm-20.882,3.91a3.955,3.955,0,0,0-.323-1.33,4.234,4.234,0,0,0-.893-1.31,4.318,4.318,0,0,0-1.318-.9,4.121,4.121,0,0,0-1.3-.32v1.17h-0.553v-1.17a4.134,4.134,0,0,0-1.4.32,4.3,4.3,0,0,0-1.329.9,4.234,4.234,0,0,0-.893,1.31,3.93,3.93,0,0,0-.322,1.33h1.381v0.55h-1.382a4.018,4.018,0,0,0,.323,1.36,4.209,4.209,0,0,0,.893,1.33,4.271,4.271,0,0,0,1.329.89,3.91,3.91,0,0,0,1.4.32v-1.62h0.553v1.62a3.867,3.867,0,0,0,1.3-.32,4.291,4.291,0,0,0,1.318-.89,4.209,4.209,0,0,0,.893-1.33,4.018,4.018,0,0,0,.323-1.36h-1.409v-0.55h1.409Zm6.7-3.91h-3.682a8.8,8.8,0,0,1,.494.98,7.907,7.907,0,0,1,.648,2.93h2.54v-3.91Zm-10.876,5.64a1.45,1.45,0,1,1,1.454-1.45A1.452,1.452,0,0,1,920.862,2766.47Zm-8.958-5.63c-0.139-.01-0.284-0.01-0.436-0.01a4.319,4.319,0,0,0-1.682.34,4.375,4.375,0,0,0-1.382.94,4.49,4.49,0,0,0-.945,1.38,4.18,4.18,0,0,0-.353,1.69v8.12h-4.07v-8.12a8.18,8.18,0,0,1,.664-3.29,8.573,8.573,0,0,1,1.807-2.68,8.388,8.388,0,0,1,2.679-1.82,8.231,8.231,0,0,1,3.282-.66,8.385,8.385,0,0,1,2.066.26,9.214,9.214,0,0,1,1.921.73l-3.156,3.19A1.692,1.692,0,0,0,911.9,2760.84Zm-14,9.8c0,1.68.226,3.83-.484,4.82a4.344,4.344,0,0,1-4.493,1.24,2.923,2.923,0,0,1-1.106-.21h0.069c0.33-.48.9-0.78,1.245-1.24a15.609,15.609,0,0,0,1.105-1.58,1.187,1.187,0,0,0,.277-1.31c-0.477-1.37-3.648-2.02-5.184-2.48a6.354,6.354,0,0,1-1.59-.34,10.019,10.019,0,0,1-.069-2.55v-6.69a5.468,5.468,0,0,1-.277-0.96,4.779,4.779,0,0,0-1.59-2,5.372,5.372,0,0,0-1.175-.62c-0.461-.19-0.966-0.41-1.451-0.62a2.763,2.763,0,0,1,1.244-1.24,15.145,15.145,0,0,1,2-.28c1.466-.35,3.146-0.45,4.563-0.82,0.8-.21,2.258-0.21,2.834-0.62,1.76-.02,2.88.12,3.594,1.1,0.737,1.01.484,3.31,0.484,5.03v11.37Zm-14.447-7.17a0.788,0.788,0,0,1-.355-0.2,1.251,1.251,0,0,1-.267-0.97,1.012,1.012,0,0,1,.277-0.41,1.1,1.1,0,0,1,.622-0.28,0.94,0.94,0,0,1,.789.25,0.853,0.853,0,0,1,.178.3,1.045,1.045,0,0,1,0,.97c-0.161.14-.322,0.27-0.483,0.41a3.635,3.635,0,0,1-.414.04h-0.1A0.587,0.587,0,0,1,883.456,2763.47Zm3.664-.69v6.69h-0.069a4.6,4.6,0,0,0-1.314-.28c-0.841-.23-1.873-0.37-2.7-0.62-0.546-.16-1.323-0.12-1.451-0.69a5.71,5.71,0,0,1,2.35-.62c0.4-1.46,3.421-4.51,1.313-6.27a2.534,2.534,0,0,0-1.106-.62c-1.555-.38-2.812,1.44-2.419,2.9a18.744,18.744,0,0,0,2,3.92h-3.111c-0.423.04-.835,0.07-1.244,0.07a9.321,9.321,0,0,0-1.659.21,1.046,1.046,0,0,0-.9.48c-0.039.24,0.275,0.52,0.968,0.9a8.8,8.8,0,0,0,3.525.96c1.112,0.18,2.191.41,3.249,0.69,1.471,0.38,2.439.71,2.419,1.03a0.963,0.963,0,0,1-.691.42c-0.277.08-1.425,0.58-2.212,0.89-0.421.17-1.074,0.53-1.659,0.83-0.784.4-1.818,0.9-2.281,1.17-0.587.34-1.146,0.62-1.728,0.97a5.347,5.347,0,0,1-1.866.75,4.17,4.17,0,0,1-2.972-.48c-1.791-1.25-1.383-4.41-1.383-5.92v-14.27a2.588,2.588,0,0,1,.069-1.37,2.561,2.561,0,0,1,1.659-1.31,5.3,5.3,0,0,1,1.374.1,8.675,8.675,0,0,1,2.152.93c1.878,0.83,3.7,1.68,5.529,2.48,1.641,0.72,3.238,1.11,3.94,2.76A10.071,10.071,0,0,1,887.12,2762.78Z" transform="translate(-872.125 -2753)"/>
</svg>
