<svg xmlns="http://www.w3.org/2000/svg" width="150.281" height="39.094" viewBox="0 0 150.281 39.094">
  <defs>
    <style>
      .cls-1 {
        fill: #fff;
        fill-rule: evenodd;
      }
    </style>
  </defs>
  <path id="Shape_330_1" data-name="Shape 330 1" class="cls-1" d="M446.056,103.117V89.6a6.46,6.46,0,0,0-.54-2.619,6.811,6.811,0,0,0-3.615-3.6,6.662,6.662,0,0,0-2.669-.541,6.454,6.454,0,0,0-2.618.541,6.857,6.857,0,0,0-3.6,3.6,6.609,6.609,0,0,0,0,5.238,6.858,6.858,0,0,0,3.6,3.6,6.441,6.441,0,0,0,2.618.54h6.757l-6.757,6.759a13.445,13.445,0,0,1-5.253-1.1,13.7,13.7,0,0,1-4.274-2.889,13.466,13.466,0,0,1-2.872-4.275,13.668,13.668,0,0,1,0-10.493,13.5,13.5,0,0,1,7.146-7.215,13.535,13.535,0,0,1,10.523,0,13.512,13.512,0,0,1,4.291,2.906,13.86,13.86,0,0,1,2.888,4.309,13.074,13.074,0,0,1,1.065,5.238v13.518h-6.69ZM422.509,82.773v20.344H415.82V82.773h-9.7v20.344h-6.689V90.05H395.3a12.957,12.957,0,0,1-1.054,4.8,13.658,13.658,0,0,1-7.213,7.2,13.024,13.024,0,0,1-4.729,1.055v5.979h-0.9v-5.975a12.948,12.948,0,0,1-4.859-1.059,13.7,13.7,0,0,1-7.2-7.2,12.957,12.957,0,0,1-1.054-4.8h-6.035v-0.9H368.3a13.019,13.019,0,0,1,1.054-4.787,13.658,13.658,0,0,1,7.2-7.215,12.952,12.952,0,0,1,4.859-1.059V70h0.9v6.093a13,13,0,0,1,4.729,1.054,13.723,13.723,0,0,1,4.308,2.906,13.5,13.5,0,0,1,1.6,1.937V76.082h39.7l-6.689,6.691h-3.446ZM388.54,89.149a6.392,6.392,0,0,0-.524-2.168,6.857,6.857,0,0,0-3.6-3.6,6.4,6.4,0,0,0-2.111-.522v1.9h-0.9v-1.9a6.587,6.587,0,0,0-2.275.53,6.811,6.811,0,0,0-3.615,3.6,6.392,6.392,0,0,0-.524,2.168h2.247v0.9h-2.248a6.576,6.576,0,0,0,.525,2.219,6.766,6.766,0,0,0,3.615,3.616,6.58,6.58,0,0,0,2.275.53V93.767h0.9v2.64a6.383,6.383,0,0,0,2.111-.522,6.811,6.811,0,0,0,3.6-3.616,6.6,6.6,0,0,0,.525-2.219h-2.293v-0.9h2.292Zm10.895-6.375h-5.99a14.314,14.314,0,0,1,.8,1.588,13.019,13.019,0,0,1,1.054,4.787h4.132V82.773Zm-17.691,9.191a2.365,2.365,0,1,1,2.364-2.365A2.365,2.365,0,0,1,381.744,91.965ZM367.172,82.79c-0.226-.011-0.462-0.017-0.71-0.017a6.788,6.788,0,0,0-2.736.558,7.188,7.188,0,0,0-2.247,1.52,7.4,7.4,0,0,0-1.537,2.264,6.744,6.744,0,0,0-.575,2.754v13.247h-6.621V89.87a13.391,13.391,0,0,1,1.081-5.373,14.11,14.11,0,0,1,2.939-4.376,13.762,13.762,0,0,1,4.358-2.957,13.666,13.666,0,0,1,8.7-.659,14.613,14.613,0,0,1,3.125,1.2l-5.136,5.2A2.409,2.409,0,0,0,367.172,82.79ZM344.4,98.768c0,2.751.367,6.246-.787,7.867-1.284,1.8-4.22,2.737-7.309,2.022a4.827,4.827,0,0,1-1.8-.337h0.113c0.536-.794,1.46-1.273,2.024-2.023a26.451,26.451,0,0,0,1.8-2.584c0.323-.552.994-1.349,0.449-2.135-0.776-2.242-5.934-3.3-8.432-4.046-0.819-.244-1.937-0.119-2.587-0.562-0.343-.553-0.112-3.258-0.112-4.158v-10.9a9.209,9.209,0,0,1-.45-1.573,7.746,7.746,0,0,0-2.586-3.259,8.679,8.679,0,0,0-1.911-1.012c-0.751-.317-1.571-0.669-2.362-1.011a4.5,4.5,0,0,1,2.024-2.023c0.951-.4,2.182-0.187,3.261-0.449,2.384-.58,5.117-0.737,7.421-1.349,1.3-.345,3.674-0.337,4.61-1.011,2.863-.029,4.685.2,5.847,1.8,1.2,1.652.787,5.392,0.787,8.2V98.768ZM320.9,87.081a1.361,1.361,0,0,1-.578-0.329,2.063,2.063,0,0,1-.434-1.581,1.725,1.725,0,0,1,1.462-1.124,1.5,1.5,0,0,1,1.285.408,1.3,1.3,0,0,1,.289.491,1.694,1.694,0,0,1,0,1.573l-0.787.674c-0.264.023-.477,0.066-0.672,0.068a0.963,0.963,0,0,1-.161-0.01A0.93,0.93,0,0,1,320.9,87.081Zm5.959-1.124v10.9h-0.112a7.985,7.985,0,0,0-2.136-.449c-1.37-.37-3.047-0.607-4.385-1.011-0.889-.268-2.153-0.194-2.362-1.124a9.266,9.266,0,0,1,3.823-1.011c0.647-2.39,5.564-7.356,2.137-10.226a4.156,4.156,0,0,0-1.8-1.011c-2.531-.621-4.575,2.353-3.936,4.72,0.689,2.553,2.181,4.323,3.261,6.406h-5.06c-0.688.067-1.358,0.1-2.024,0.112a15.581,15.581,0,0,0-2.7.337c-0.919.221-1.406,0.451-1.462,0.787-0.064.385,0.447,0.851,1.574,1.461a14.341,14.341,0,0,0,5.735,1.573c1.808,0.3,3.563.673,5.284,1.124,2.393,0.627,3.968,1.165,3.936,1.686a1.548,1.548,0,0,1-1.125.674c-0.452.139-2.319,0.956-3.6,1.461-0.685.271-1.748,0.86-2.7,1.349-1.276.655-2.959,1.476-3.711,1.91-0.954.551-1.865,1.009-2.811,1.574a8.788,8.788,0,0,1-3.036,1.236,6.764,6.764,0,0,1-4.835-.787c-2.912-2.046-2.248-7.19-2.248-9.664V74.72a3.46,3.46,0,0,1,2.811-4.383,8.964,8.964,0,0,1,2.235.166,13.987,13.987,0,0,1,3.5,1.52c3.056,1.355,6.02,2.742,9,4.045,2.669,1.169,5.267,1.811,6.409,4.5C327.078,81.876,326.857,84.149,326.856,85.957Z" transform="translate(-302.469 -70)"/>
</svg>
